<svg width="805" height="717" viewBox="0 0 805 717" fill="none" xmlns="http://www.w3.org/2000/svg">
<path d="M554.006 482.117V445.382L803.603 589.135V456.453C803.1 451.589 803.1 447.059 803.603 409.318L553.671 378.118V357.319L803.435 325.951C795.216 279.656 763.681 206.688 715.539 147.644L516.936 302.132C512.407 296.932 507.374 291.9 502.175 287.371L656.663 88.7675C597.618 40.6266 524.484 9.09103 444.64 0.704102L413.44 250.636C410.085 250.469 406.563 250.301 403.04 250.301C399.518 250.301 395.995 250.469 392.641 250.636L361.273 0.871841C281.429 9.09103 208.462 40.6266 149.418 88.7675L303.906 287.371C298.706 291.9 293.674 296.932 288.977 302.132L90.3736 147.644C42.4 206.688 10.8649 279.656 2.64569 325.951L252.41 357.319V377.783L4.15535 408.815C4.8263 448.569 4.8263 455.447 4.15535 462.659V588.632L252.075 445.718V481.278L0.632812 686.424V716.114H282.268V399.925C282.268 398.415 282.268 396.905 282.603 395.396C285.455 331.32 338.293 280.494 403.04 280.494C467.788 280.494 520.626 331.32 523.478 395.396C523.813 396.905 523.813 398.415 523.813 399.925V716.114H804.441V686.424L554.006 482.117Z" fill="#F74409"/>
</svg>
